<svg width="20" height="20" viewBox="0 0 20 20" fill="none" xmlns="http://www.w3.org/2000/svg">
<path d="M5.98633 15.0449C5.33789 15.0449 4.84375 14.877 4.50391 14.541C4.16797 14.209 4 13.7227 4 13.082V5.96289C4 5.32227 4.16797 4.83594 4.50391 4.50391C4.84375 4.16797 5.33789 4 5.98633 4H14.0898C14.7383 4 15.2305 4.16797 15.5664 4.50391C15.9023 4.83594 16.0703 5.32227 16.0703 5.96289V13.082C16.0703 13.7227 15.9023 14.209 15.5664 14.541C15.2305 14.877 14.7383 15.0449 14.0898 15.0449H5.98633ZM6.02148 13.7441H14.043C14.2773 13.7441 14.457 13.6855 14.582 13.5684C14.707 13.4473 14.7695 13.2637 14.7695 13.0176V7.68555C14.7695 7.44336 14.707 7.26367 14.582 7.14648C14.457 7.02539 14.2773 6.96484 14.043 6.96484H6.02148C5.79102 6.96484 5.61328 7.02539 5.48828 7.14648C5.36328 7.26367 5.30078 7.44336 5.30078 7.68555V13.0176C5.30078 13.2637 5.36328 13.4473 5.48828 13.5684C5.61328 13.6855 5.79102 13.7441 6.02148 13.7441ZM8.92188 8.93945C8.81641 8.93945 8.74219 8.91992 8.69922 8.88086C8.65625 8.83789 8.63477 8.76562 8.63477 8.66406V8.31836C8.63477 8.21289 8.65625 8.14062 8.69922 8.10156C8.74219 8.0625 8.81641 8.04297 8.92188 8.04297H9.26172C9.36719 8.04297 9.44141 8.0625 9.48438 8.10156C9.52734 8.14062 9.54883 8.21289 9.54883 8.31836V8.66406C9.54883 8.76562 9.52734 8.83789 9.48438 8.88086C9.44141 8.91992 9.36719 8.93945 9.26172 8.93945H8.92188ZM10.8145 8.93945C10.709 8.93945 10.6348 8.91992 10.5918 8.88086C10.5527 8.83789 10.5332 8.76562 10.5332 8.66406V8.31836C10.5332 8.21289 10.5527 8.14062 10.5918 8.10156C10.6348 8.0625 10.709 8.04297 10.8145 8.04297H11.1602C11.2656 8.04297 11.3379 8.0625 11.377 8.10156C11.4199 8.14062 11.4414 8.21289 11.4414 8.31836V8.66406C11.4414 8.76562 11.4199 8.83789 11.377 8.88086C11.3379 8.91992 11.2656 8.93945 11.1602 8.93945H10.8145ZM12.707 8.93945C12.6016 8.93945 12.5273 8.91992 12.4844 8.88086C12.4414 8.83789 12.4199 8.76562 12.4199 8.66406V8.31836C12.4199 8.21289 12.4414 8.14062 12.4844 8.10156C12.5273 8.0625 12.6016 8.04297 12.707 8.04297H13.0469C13.1562 8.04297 13.2305 8.0625 13.2695 8.10156C13.3125 8.14062 13.334 8.21289 13.334 8.31836V8.66406C13.334 8.76562 13.3125 8.83789 13.2695 8.88086C13.2305 8.91992 13.1562 8.93945 13.0469 8.93945H12.707ZM7.0293 10.8027C6.91992 10.8027 6.84375 10.7832 6.80078 10.7441C6.76172 10.7012 6.74219 10.627 6.74219 10.5215V10.1816C6.74219 10.0762 6.76172 10.0039 6.80078 9.96484C6.84375 9.92578 6.91992 9.90625 7.0293 9.90625H7.375C7.48047 9.90625 7.55273 9.92578 7.5918 9.96484C7.63086 10.0039 7.65039 10.0762 7.65039 10.1816V10.5215C7.65039 10.627 7.63086 10.7012 7.5918 10.7441C7.55273 10.7832 7.48047 10.8027 7.375 10.8027H7.0293ZM8.92188 10.8027C8.81641 10.8027 8.74219 10.7832 8.69922 10.7441C8.65625 10.7012 8.63477 10.627 8.63477 10.5215V10.1816C8.63477 10.0762 8.65625 10.0039 8.69922 9.96484C8.74219 9.92578 8.81641 9.90625 8.92188 9.90625H9.26172C9.36719 9.90625 9.44141 9.92578 9.48438 9.96484C9.52734 10.0039 9.54883 10.0762 9.54883 10.1816V10.5215C9.54883 10.627 9.52734 10.7012 9.48438 10.7441C9.44141 10.7832 9.36719 10.8027 9.26172 10.8027H8.92188ZM10.8145 10.8027C10.709 10.8027 10.6348 10.7832 10.5918 10.7441C10.5527 10.7012 10.5332 10.627 10.5332 10.5215V10.1816C10.5332 10.0762 10.5527 10.0039 10.5918 9.96484C10.6348 9.92578 10.709 9.90625 10.8145 9.90625H11.1602C11.2656 9.90625 11.3379 9.92578 11.377 9.96484C11.4199 10.0039 11.4414 10.0762 11.4414 10.1816V10.5215C11.4414 10.627 11.4199 10.7012 11.377 10.7441C11.3379 10.7832 11.2656 10.8027 11.1602 10.8027H10.8145ZM12.707 10.8027C12.6016 10.8027 12.5273 10.7832 12.4844 10.7441C12.4414 10.7012 12.4199 10.627 12.4199 10.5215V10.1816C12.4199 10.0762 12.4414 10.0039 12.4844 9.96484C12.5273 9.92578 12.6016 9.90625 12.707 9.90625H13.0469C13.1562 9.90625 13.2305 9.92578 13.2695 9.96484C13.3125 10.0039 13.334 10.0762 13.334 10.1816V10.5215C13.334 10.627 13.3125 10.7012 13.2695 10.7441C13.2305 10.7832 13.1562 10.8027 13.0469 10.8027H12.707ZM7.0293 12.666C6.91992 12.666 6.84375 12.6465 6.80078 12.6074C6.76172 12.5684 6.74219 12.4941 6.74219 12.3848V12.0449C6.74219 11.9395 6.76172 11.8672 6.80078 11.8281C6.84375 11.7891 6.91992 11.7695 7.0293 11.7695H7.375C7.48047 11.7695 7.55273 11.7891 7.5918 11.8281C7.63086 11.8672 7.65039 11.9395 7.65039 12.0449V12.3848C7.65039 12.4941 7.63086 12.5684 7.5918 12.6074C7.55273 12.6465 7.48047 12.666 7.375 12.666H7.0293ZM8.92188 12.666C8.81641 12.666 8.74219 12.6465 8.69922 12.6074C8.65625 12.5684 8.63477 12.4941 8.63477 12.3848V12.0449C8.63477 11.9395 8.65625 11.8672 8.69922 11.8281C8.74219 11.7891 8.81641 11.7695 8.92188 11.7695H9.26172C9.36719 11.7695 9.44141 11.7891 9.48438 11.8281C9.52734 11.8672 9.54883 11.9395 9.54883 12.0449V12.3848C9.54883 12.4941 9.52734 12.5684 9.48438 12.6074C9.44141 12.6465 9.36719 12.666 9.26172 12.666H8.92188ZM10.8145 12.666C10.709 12.666 10.6348 12.6465 10.5918 12.6074C10.5527 12.5684 10.5332 12.4941 10.5332 12.3848V12.0449C10.5332 11.9395 10.5527 11.8672 10.5918 11.8281C10.6348 11.7891 10.709 11.7695 10.8145 11.7695H11.1602C11.2656 11.7695 11.3379 11.7891 11.377 11.8281C11.4199 11.8672 11.4414 11.9395 11.4414 12.0449V12.3848C11.4414 12.4941 11.4199 12.5684 11.377 12.6074C11.3379 12.6465 11.2656 12.666 11.1602 12.666H10.8145Z" fill="black"/>
</svg>
