<svg width="24" height="24" viewBox="0 0 24 24" fill="none" xmlns="http://www.w3.org/2000/svg">
<path d="M5.75879 9.7168C5.25293 9.7168 5 9.45931 5 8.94434V7.29688C5 6.54948 5.19596 5.97982 5.58789 5.58789C5.98438 5.19596 6.56087 5 7.31738 5H8.96484C9.47982 5 9.7373 5.25293 9.7373 5.75879C9.7373 6.26921 9.47982 6.52441 8.96484 6.52441H7.44043C7.13965 6.52441 6.90951 6.60189 6.75 6.75684C6.59505 6.90723 6.51758 7.13965 6.51758 7.4541V8.94434C6.51758 9.45931 6.26465 9.7168 5.75879 9.7168ZM17.8994 9.7168C17.3936 9.7168 17.1406 9.45931 17.1406 8.94434V7.4541C17.1406 7.13965 17.0609 6.90723 16.9014 6.75684C16.7419 6.60189 16.514 6.52441 16.2178 6.52441H14.6934C14.1829 6.52441 13.9277 6.26921 13.9277 5.75879C13.9277 5.25293 14.1829 5 14.6934 5H16.3477C17.1042 5 17.6784 5.19596 18.0703 5.58789C18.4668 5.97982 18.665 6.54948 18.665 7.29688V8.94434C18.665 9.45931 18.4098 9.7168 17.8994 9.7168ZM7.31738 18.665C6.56087 18.665 5.98438 18.4691 5.58789 18.0771C5.19596 17.6852 5 17.1156 5 16.3682V14.7139C5 14.2035 5.25293 13.9482 5.75879 13.9482C6.26465 13.9482 6.51758 14.2035 6.51758 14.7139V16.2109C6.51758 16.5254 6.59505 16.7578 6.75 16.9082C6.90951 17.0632 7.13965 17.1406 7.44043 17.1406H8.96484C9.47982 17.1406 9.7373 17.3958 9.7373 17.9062C9.7373 18.4121 9.47982 18.665 8.96484 18.665H7.31738ZM14.6934 18.665C14.1829 18.665 13.9277 18.4121 13.9277 17.9062C13.9277 17.3958 14.1829 17.1406 14.6934 17.1406H16.2178C16.514 17.1406 16.7419 17.0632 16.9014 16.9082C17.0609 16.7578 17.1406 16.5254 17.1406 16.2109V14.7139C17.1406 14.2035 17.3936 13.9482 17.8994 13.9482C18.4098 13.9482 18.665 14.2035 18.665 14.7139V16.3682C18.665 17.1156 18.4668 17.6852 18.0703 18.0771C17.6784 18.4691 17.1042 18.665 16.3477 18.665H14.6934ZM8.58887 15.7734C8.41113 15.7734 8.27897 15.721 8.19238 15.6162C8.11035 15.5114 8.06934 15.3815 8.06934 15.2266C8.06934 15.0215 8.14453 14.7594 8.29492 14.4404C8.44531 14.1214 8.67318 13.8047 8.97852 13.4902C9.28841 13.1712 9.68034 12.9023 10.1543 12.6836C10.6283 12.4648 11.1888 12.3555 11.8359 12.3555C12.4876 12.3555 13.0505 12.4648 13.5244 12.6836C13.9984 12.9023 14.388 13.1712 14.6934 13.4902C14.9987 13.8047 15.2266 14.1214 15.377 14.4404C15.5273 14.7594 15.6025 15.0215 15.6025 15.2266C15.6025 15.3815 15.5592 15.5114 15.4727 15.6162C15.3906 15.721 15.2607 15.7734 15.083 15.7734H8.58887ZM11.8359 11.7744C11.4896 11.7744 11.1706 11.6855 10.8789 11.5078C10.5918 11.3255 10.3639 11.0794 10.1953 10.7695C10.0312 10.4596 9.94922 10.1087 9.94922 9.7168C9.94922 9.3431 10.0312 9.00358 10.1953 8.69824C10.3639 8.3929 10.5918 8.14909 10.8789 7.9668C11.1706 7.78451 11.4896 7.69336 11.8359 7.69336C12.1868 7.69336 12.5036 7.78451 12.7861 7.9668C13.0732 8.14909 13.3011 8.3929 13.4697 8.69824C13.6429 9.00358 13.7295 9.3431 13.7295 9.7168C13.7295 10.1087 13.6429 10.4619 13.4697 10.7764C13.3011 11.0863 13.0732 11.3324 12.7861 11.5146C12.5036 11.6924 12.1868 11.779 11.8359 11.7744Z" fill="#121212"/>
</svg>
