<svg width="24" height="24" viewBox="0 0 24 24" fill="none" xmlns="http://www.w3.org/2000/svg">
<path d="M11.6035 13.0439L10.0723 13.6318C9.96745 13.6729 9.87174 13.6523 9.78516 13.5703C9.69857 13.4883 9.67806 13.3926 9.72363 13.2832L10.3389 11.7725L16.5254 5.59277L17.7969 6.85742L11.6035 13.0439ZM18.3096 6.35156L17.0381 5.08008L17.6602 4.46484C17.8151 4.3099 17.9974 4.22559 18.207 4.21191C18.4167 4.19368 18.5921 4.25293 18.7334 4.38965L18.9453 4.60156C19.1048 4.76107 19.18 4.94792 19.1709 5.16211C19.1618 5.37174 19.0775 5.56087 18.918 5.72949L18.3096 6.35156ZM5 10.166C5 9.29102 5.14355 8.47982 5.43066 7.73242C5.71777 6.98503 6.13021 6.33333 6.66797 5.77734C7.21029 5.2168 7.8597 4.78158 8.61621 4.47168C9.37272 4.15723 10.2181 4 11.1523 4C11.8633 4 12.5719 4.1071 13.2783 4.32129C13.9893 4.53092 14.666 4.82943 15.3086 5.2168L14.2764 6.25586C13.7751 5.97786 13.251 5.76139 12.7041 5.60645C12.1572 5.4515 11.6058 5.37402 11.0498 5.37402C10.1019 5.37402 9.27702 5.5791 8.5752 5.98926C7.87793 6.39941 7.33561 6.96452 6.94824 7.68457C6.56087 8.40006 6.36719 9.21582 6.36719 10.1318C6.36719 10.7516 6.45833 11.3805 6.64062 12.0186C6.82292 12.652 7.09635 13.2695 7.46094 13.8711C7.83008 14.4727 8.29036 15.0286 8.8418 15.5391C9.39779 16.0495 10.0472 16.4915 10.79 16.8652C11.5329 17.2435 12.3737 17.526 13.3125 17.7129C13.5267 17.763 13.6862 17.8451 13.791 17.959C13.9004 18.0775 13.9551 18.2279 13.9551 18.4102C13.9551 18.5651 13.9163 18.6927 13.8389 18.793C13.766 18.8932 13.6634 18.9639 13.5312 19.0049C13.3991 19.0505 13.2487 19.0618 13.0801 19.0391C12.2962 18.9479 11.5146 18.7337 10.7354 18.3965C9.96061 18.0638 9.22917 17.6263 8.54102 17.084C7.85286 16.5462 7.24219 15.9242 6.70898 15.2178C6.17578 14.5068 5.75651 13.7275 5.45117 12.8799C5.15039 12.0277 5 11.123 5 10.166ZM19.6357 12.2373C19.6357 13.0804 19.4535 13.8255 19.0889 14.4727C18.7288 15.1152 18.2275 15.6165 17.585 15.9766C16.9424 16.3366 16.1995 16.5166 15.3564 16.5166C14.8096 16.5166 14.2559 16.4391 13.6953 16.2842C13.1393 16.1292 12.6038 15.9082 12.0889 15.6211C11.5739 15.3294 11.1022 14.9831 10.6738 14.582L12.1641 13.9941C12.6243 14.377 13.1257 14.6823 13.668 14.9102C14.2148 15.1335 14.7572 15.2451 15.2949 15.2451C15.8418 15.2451 16.3431 15.1221 16.7988 14.876C17.2546 14.6299 17.6169 14.2812 17.8857 13.8301C18.1546 13.3743 18.2891 12.8411 18.2891 12.2305C18.2891 11.6745 18.1956 11.123 18.0088 10.5762C17.8219 10.0247 17.5645 9.50065 17.2363 9.00391L18.248 7.97852C18.6764 8.60286 19.0137 9.27506 19.2598 9.99512C19.5104 10.7152 19.6357 11.4626 19.6357 12.2373Z" fill="#121212"/>
</svg>
