<svg width="24" height="24" viewBox="0 0 24 24" fill="none" xmlns="http://www.w3.org/2000/svg">
<path d="M15.486 19.3604C15.1351 19.529 14.7819 19.6133 14.4264 19.6133C14.0254 19.6133 13.6266 19.5153 13.2302 19.3193C12.8382 19.1234 12.4395 18.8636 12.0339 18.54C11.6693 18.2529 11.2933 17.9453 10.9059 17.6172C10.5186 17.2891 10.1107 17.0225 9.6823 16.8174C9.2448 16.6032 8.78224 16.4505 8.29461 16.3594C7.80698 16.2682 7.33758 16.1702 6.88641 16.0654C6.15268 15.9014 5.53745 15.6598 5.0407 15.3408C4.54396 15.0173 4.22039 14.5319 4.07 13.8848C3.92417 13.2422 4.0062 12.6657 4.31609 12.1553C4.63055 11.6449 5.07944 11.1618 5.66277 10.7061C6.0228 10.4144 6.40333 10.1204 6.80437 9.82422C7.20542 9.52344 7.55861 9.18392 7.86395 8.80566C8.16017 8.42741 8.40854 8.01042 8.60906 7.55469C8.80958 7.09896 9.00783 6.66602 9.20379 6.25586C9.52736 5.57682 9.90105 5.03223 10.3249 4.62207C10.7533 4.20736 11.2979 4 11.9587 4C12.6195 4 13.1618 4.20736 13.5856 4.62207C14.014 5.03223 14.39 5.57454 14.7136 6.24902C14.9095 6.66374 15.1055 7.10124 15.3014 7.56152C15.502 8.01725 15.7503 8.43197 16.0466 8.80566C16.3519 9.17936 16.7051 9.5166 17.1061 9.81738C17.5117 10.1182 17.8945 10.4144 18.2546 10.7061C18.8425 11.1618 19.2914 11.6449 19.6012 12.1553C19.9111 12.6657 19.9932 13.2422 19.8473 13.8848C19.697 14.5319 19.3711 15.0173 18.8698 15.3408C18.3731 15.6598 17.7578 15.9014 17.0241 16.0654C16.5775 16.1702 16.1104 16.2682 15.6227 16.3594C15.1351 16.4505 14.6725 16.6009 14.235 16.8105C13.8067 17.0202 13.3988 17.2891 13.0114 17.6172C12.624 17.9453 12.2458 18.2507 11.8766 18.5332C11.471 18.8568 11.07 19.1165 10.6735 19.3125C10.2816 19.513 9.8851 19.6133 9.48406 19.6133C9.12859 19.6133 8.77996 19.5312 8.43816 19.3672C7.83204 19.0801 7.42872 18.6585 7.2282 18.1025C7.02768 17.5465 6.92742 16.8926 6.92742 16.1406C6.92742 15.6849 6.93654 15.2064 6.95477 14.7051C6.97755 14.2038 6.93426 13.7184 6.82488 13.249C6.72007 12.7796 6.54917 12.3239 6.31219 11.8818C6.07521 11.4352 5.85874 11.0023 5.66277 10.583C5.33921 9.9222 5.1478 9.29557 5.08855 8.70312C5.02931 8.11068 5.20704 7.55697 5.62176 7.04199C6.03191 6.52246 6.53094 6.22624 7.11883 6.15332C7.71128 6.07585 8.37436 6.1237 9.10809 6.29688C9.5547 6.40169 10.0195 6.5179 10.5026 6.64551C10.9902 6.76855 11.4756 6.83008 11.9587 6.83008C12.4372 6.83008 12.9203 6.76855 13.4079 6.64551C13.8955 6.5179 14.3649 6.40169 14.8161 6.29688C15.5453 6.1237 16.2038 6.07585 16.7917 6.15332C17.3796 6.22624 17.8809 6.52246 18.2956 7.04199C18.7057 7.56152 18.8812 8.11751 18.822 8.70996C18.7673 9.29785 18.5759 9.92448 18.2477 10.5898C18.0518 11.0046 17.8353 11.4352 17.5983 11.8818C17.3613 12.3239 17.1927 12.7751 17.0925 13.2354C16.9831 13.7093 16.9375 14.1992 16.9557 14.7051C16.9785 15.2064 16.9899 15.6849 16.9899 16.1406C16.9899 16.8926 16.8874 17.5465 16.6823 18.1025C16.4818 18.6585 16.083 19.0778 15.486 19.3604ZM14.8503 18.0479C15.0827 17.9339 15.2445 17.7767 15.3356 17.5762C15.4268 17.3757 15.4792 17.1523 15.4929 16.9062C15.5065 16.6602 15.5156 16.4118 15.5202 16.1611C15.5202 15.6462 15.5134 15.1061 15.4997 14.541C15.486 13.9759 15.5384 13.4336 15.6569 12.9141C15.7708 12.4036 15.9554 11.8978 16.2106 11.3965C16.4658 10.8906 16.7096 10.3984 16.9421 9.91992C17.0423 9.70117 17.138 9.48014 17.2292 9.25684C17.3249 9.02897 17.375 8.80566 17.3796 8.58691C17.3887 8.36816 17.3089 8.15853 17.1403 7.95801C16.9808 7.75749 16.794 7.63444 16.5798 7.58887C16.3656 7.53874 16.1377 7.53418 15.8962 7.5752C15.6546 7.61621 15.4131 7.66406 15.1716 7.71875C14.6657 7.83724 14.1371 7.96484 13.5856 8.10156C13.0342 8.23372 12.4919 8.2998 11.9587 8.2998C11.4255 8.2998 10.8832 8.23372 10.3317 8.10156C9.78029 7.96484 9.25164 7.83724 8.74578 7.71875C8.50424 7.66862 8.26271 7.62305 8.02117 7.58203C7.77964 7.54102 7.55177 7.54329 7.33758 7.58887C7.12339 7.63444 6.93198 7.75977 6.76336 7.96484C6.60385 8.16536 6.52638 8.375 6.53094 8.59375C6.54005 8.80794 6.59018 9.02897 6.68133 9.25684C6.77703 9.48014 6.87729 9.70345 6.98211 9.92676C7.20997 10.4053 7.44923 10.8952 7.69988 11.3965C7.95509 11.8978 8.13966 12.4014 8.25359 12.9072C8.37208 13.4313 8.42449 13.9759 8.41082 14.541C8.40171 15.1061 8.39715 15.6462 8.39715 16.1611C8.40171 16.4118 8.41082 16.6602 8.42449 16.9062C8.43816 17.1523 8.49057 17.3757 8.58172 17.5762C8.67286 17.7767 8.83465 17.9339 9.06707 18.0479C9.30405 18.1572 9.52736 18.1846 9.73699 18.1299C9.94663 18.0798 10.1517 17.984 10.3522 17.8428C10.5527 17.7015 10.751 17.5557 10.947 17.4053C11.348 17.0863 11.7695 16.7445 12.2116 16.3799C12.6582 16.0153 13.1162 15.7214 13.5856 15.498C14.0733 15.2611 14.5951 15.0833 15.1511 14.9648C15.707 14.8464 16.2311 14.7347 16.7233 14.6299C16.9649 14.5706 17.2041 14.5091 17.4411 14.4453C17.6781 14.377 17.8832 14.2767 18.0563 14.1445C18.2341 14.0124 18.3526 13.8164 18.4118 13.5566C18.471 13.3014 18.4505 13.0781 18.3503 12.8867C18.25 12.6908 18.1087 12.5107 17.9264 12.3467C17.7442 12.1826 17.555 12.0231 17.3591 11.8682C16.9535 11.5446 16.5251 11.2119 16.0739 10.8701C15.6273 10.5238 15.2376 10.141 14.905 9.72168C14.5723 9.30697 14.2897 8.8444 14.0573 8.33398C13.8294 7.82357 13.6016 7.33594 13.3737 6.87109C13.2689 6.64779 13.155 6.42904 13.0319 6.21484C12.9134 5.99609 12.7699 5.81836 12.6012 5.68164C12.4326 5.54036 12.2184 5.46973 11.9587 5.46973C11.6943 5.46973 11.4779 5.54036 11.3093 5.68164C11.1406 5.81836 10.9971 5.99609 10.8786 6.21484C10.7601 6.42904 10.6462 6.64779 10.5368 6.87109C10.3135 7.33594 10.0856 7.82585 9.8532 8.34082C9.62534 8.85124 9.34279 9.31152 9.00555 9.72168C8.67742 10.1364 8.28777 10.5169 7.8366 10.8633C7.38999 11.2096 6.96388 11.5446 6.55828 11.8682C6.36232 12.0231 6.17319 12.1826 5.9909 12.3467C5.80861 12.5107 5.66733 12.6908 5.56707 12.8867C5.47137 13.0781 5.45086 13.3014 5.50555 13.5566C5.56479 13.8164 5.681 14.0124 5.85418 14.1445C6.03191 14.2767 6.23699 14.377 6.46941 14.4453C6.70639 14.5091 6.94565 14.5706 7.18719 14.6299C7.69305 14.7438 8.22169 14.8577 8.77313 14.9717C9.32456 15.0856 9.84181 15.2588 10.3249 15.4912C10.7988 15.7191 11.2546 16.013 11.6921 16.373C12.1296 16.7331 12.5534 17.0749 12.9636 17.3984C13.1641 17.5534 13.3623 17.7015 13.5583 17.8428C13.7542 17.984 13.9593 18.082 14.1735 18.1367C14.3877 18.1914 14.6133 18.1618 14.8503 18.0479Z" fill="#121212"/>
</svg>
