<svg width="19" height="18" viewBox="0 0 19 18" fill="none" xmlns="http://www.w3.org/2000/svg">
<rect width="18" height="18" transform="translate(0.5)" fill="#121212"/>
<path d="M10.8263 5.50344L10.509 8.58171C10.4579 9.11797 10.4324 9.65426 10.4324 10.1906C10.4324 11.2131 10.5528 11.8352 10.7935 12.0568C11.0416 12.2714 11.3225 12.3786 11.6362 12.3786C12.3366 12.3786 12.8842 11.5898 12.8842 11.0348L13.298 10.7812C13.298 13.6875 12.2418 14.0625 10.8702 14.0625C9.43293 14.0625 8.7143 13.2545 8.7143 11.6385C8.7143 10.8234 8.79452 9.80805 8.95498 8.59246L9.3599 5.50348H8.27649C7.67826 5.50348 7.21134 5.60359 6.87574 5.80381C6.54743 5.99688 6.24101 6.39014 5.95647 6.98361H5.5625C5.79597 6.19708 6.07319 5.57499 6.39418 5.11733C6.7152 4.65254 7.02162 4.34149 7.31345 4.18419C7.60529 4.01973 8.03939 3.9375 8.61574 3.9375H14V5.50346L10.8263 5.50344Z" fill="white"/>
</svg>
